<svg xmlns="http://www.w3.org/2000/svg" width="960" height="1200" viewBox="0 0 960 1200" role="img" aria-labelledby="title desc">
  <title id="title">Djilbab premium de demonstration</title>
  <desc id="desc">Illustration minimaliste d'un djilbab premium.</desc>
  <rect width="960" height="1200" fill="#FFF5F8"/>
  <rect x="92" y="108" width="776" height="984" rx="28" fill="#FFFFFF" stroke="#E8DDE5" stroke-width="4"/>
  <path d="M480 180c-96 0-166 80-166 180v82c0 44-22 96-52 156-48 94-80 220-96 366h628c-16-146-48-272-96-366-30-60-52-112-52-156v-82c0-100-70-180-166-180Z" fill="#E9B7C5" stroke="#5B2A6E" stroke-width="8"/>
  <path d="M392 358c28 42 148 42 176 0" fill="none" stroke="#8C5A9E" stroke-width="10" stroke-linecap="round"/>
  <path d="M316 964h328" stroke="#5B2A6E" stroke-width="10" stroke-linecap="round"/>
  <text x="480" y="1044" text-anchor="middle" font-family="Segoe UI, Arial, sans-serif" font-size="42" font-weight="700" fill="#241B25">Djilbab demo</text>
</svg>
